<svg width="160" height="160" viewBox="0 0 160 160" fill="none" xmlns="http://www.w3.org/2000/svg">
<rect width="160" height="160" rx="20" fill="#29526A"/>
<path d="M54.4841 119.506C61.786 119.506 68.0806 116.153 73.62 111.876H74.1235L75.1308 118.119H87.0906V84.4751C87.0906 68.636 79.4142 59.965 64.0521 59.965C54.2324 59.965 45.4198 63.4334 38.6215 67.3671L43.9091 76.2666C49.4484 73.2606 55.2395 70.7171 61.2824 70.7171C69.7173 70.7171 72.3611 75.8041 72.6129 81.816C47.1824 84.3595 36.2265 90.7183 36.2265 102.858C36.2296 112.801 43.6573 119.506 54.4841 119.506ZM59.1407 109.101C53.9791 109.101 50.2022 106.904 50.2022 101.817C50.2022 96.1522 55.7416 92.1057 72.6113 90.1402V102.858C67.9548 106.789 64.178 109.101 59.1407 109.101ZM99.8565 118.119H114.334V65.5821H99.8581L99.8565 118.119ZM107.158 55.6393C112.32 55.6393 115.845 52.6334 115.845 48.0088C115.845 43.4971 112.32 40.4939 107.158 40.4939C101.997 40.4939 98.4732 43.4999 98.4732 48.006C98.4732 52.6334 101.997 55.6393 107.158 55.6393Z" fill="#A2D8EB"/>
</svg>
